<?xml version="1.0" encoding="UTF-8" standalone="no"?>
<svg
   width="297.17874"
   height="29.879999"
   viewBox="0 0 297.17874 29.879999"
   version="1.1"
   id="svg3263"
   sodipodi:docname="logo.svg"
   inkscape:version="1.1.2 (b8e25be8, 2022-02-05)"
   xmlns:inkscape="http://www.inkscape.org/namespaces/inkscape"
   xmlns:sodipodi="http://sodipodi.sourceforge.net/DTD/sodipodi-0.dtd"
   xmlns="http://www.w3.org/2000/svg"
   xmlns:svg="http://www.w3.org/2000/svg"
   xmlns:rdf="http://www.w3.org/1999/02/22-rdf-syntax-ns#"
   xmlns:cc="http://creativecommons.org/ns#"
   xmlns:dc="http://purl.org/dc/elements/1.1/">
  <sodipodi:namedview
     id="namedview3265"
     pagecolor="#ffffff"
     bordercolor="#666666"
     borderopacity="1.0"
     inkscape:pageshadow="2"
     inkscape:pageopacity="0.0"
     inkscape:pagecheckerboard="0"
     showgrid="false"
     fit-margin-top="0"
     fit-margin-left="0"
     fit-margin-right="0"
     fit-margin-bottom="0"
     inkscape:zoom="2.4616316"
     inkscape:cx="157.41592"
     inkscape:cy="32.701887"
     inkscape:window-width="1296"
     inkscape:window-height="767"
     inkscape:window-x="294"
     inkscape:window-y="40"
     inkscape:window-maximized="0"
     inkscape:current-layer="svg3263" />
  <!-- Generator: Sketch 51.3 (57544) - http://www.bohemiancoding.com/sketch -->
  <title
     id="title3253">logo</title>
  <desc
     id="desc3255">Created with Sketch.</desc>
  <defs
     id="defs3257" />
  <g
     aria-label="ST IVES SMILES"
     transform="translate(-180.67141,-162.9213)"
     id="text3170"
     style="font-size:40px;line-height:1.25;word-spacing:0px;white-space:pre;shape-inside:url(#rect3172);fill:#517369;fill-opacity:1"
     inkscape:export-filename="/Users/tomasbeuzen/text3170.png"
     inkscape:export-xdpi="300"
     inkscape:export-ydpi="300">
    <path
       d="m 198.83141,171.9613 h 3.6 q -0.08,-2.36 -0.92,-4.04 -0.8,-1.72 -2.24,-2.84 -1.4,-1.12 -3.28,-1.64 -1.88,-0.52 -4.08,-0.52 -1.96,0 -3.84,0.52 -1.84,0.48 -3.32,1.52 -1.44,1 -2.32,2.6 -0.88,1.56 -0.88,3.72 0,1.96 0.76,3.28 0.8,1.28 2.08,2.12 1.32,0.8 2.96,1.32 1.64,0.48 3.32,0.88 1.72,0.36 3.36,0.72 1.64,0.36 2.92,0.96 1.32,0.56 2.08,1.48 0.8,0.92 0.8,2.4 0,1.56 -0.64,2.56 -0.64,1 -1.68,1.6 -1.04,0.56 -2.36,0.8 -1.28,0.24 -2.56,0.24 -1.6,0 -3.12,-0.4 -1.52,-0.4 -2.68,-1.24 -1.12,-0.84 -1.84,-2.12 -0.68,-1.32 -0.68,-3.12 h -3.6 q 0,2.6 0.92,4.52 0.96,1.88 2.56,3.12 1.64,1.2 3.76,1.8 2.16,0.6 4.56,0.6 1.96,0 3.92,-0.48 2,-0.44 3.6,-1.44 1.6,-1.04 2.6,-2.64 1.04,-1.64 1.04,-3.92 0,-2.12 -0.8,-3.52 -0.76,-1.4 -2.08,-2.32 -1.28,-0.92 -2.92,-1.44 -1.64,-0.56 -3.36,-0.96 -1.68,-0.4 -3.32,-0.72 -1.64,-0.36 -2.96,-0.88 -1.28,-0.52 -2.08,-1.32 -0.76,-0.84 -0.76,-2.16 0,-1.4 0.52,-2.32 0.56,-0.96 1.44,-1.52 0.92,-0.56 2.08,-0.8 1.16,-0.24 2.36,-0.24 2.96,0 4.84,1.4 1.92,1.36 2.24,4.44 z"
       style="font-family:'Helvetica Neue';-inkscape-font-specification:'Helvetica Neue';fill:#517369;fill-opacity:1"
       id="path3174" />
    <path
       d="m 214.72891,166.8013 v 25.36 h 3.8 v -25.36 h 9.52 v -3.2 h -22.84 v 3.2 z"
       style="font-family:'Helvetica Neue';-inkscape-font-specification:'Helvetica Neue';fill:#517369;fill-opacity:1"
       id="path3176" />
    <path
       d="m 242.47141,163.6013 v 28.56 h 3.8 v -28.56 z"
       style="font-family:'Helvetica Neue';-inkscape-font-specification:'Helvetica Neue';fill:#517369;fill-opacity:1"
       id="path3178" />
    <path
       d="m 263.94203,192.1613 10.16,-28.56 h -3.96 l -8.24,24.76 h -0.08 l -8.16,-24.76 h -4.08 l 10.04,28.56 z"
       style="font-family:'Helvetica Neue';-inkscape-font-specification:'Helvetica Neue';fill:#517369;fill-opacity:1"
       id="path3180" />
    <path
       d="m 277.15516,163.6013 v 28.56 h 19.84 v -3.2 h -16.04 v -9.88 h 14.84 v -3.2 h -14.84 v -9.08 h 15.92 v -3.2 z"
       style="font-family:'Helvetica Neue';-inkscape-font-specification:'Helvetica Neue';fill:#517369;fill-opacity:1"
       id="path3182" />
    <path
       d="m 318.12828,171.9613 h 3.6 q -0.08,-2.36 -0.92,-4.04 -0.8,-1.72 -2.24,-2.84 -1.4,-1.12 -3.28,-1.64 -1.88,-0.52 -4.08,-0.52 -1.96,0 -3.84,0.52 -1.84,0.48 -3.32,1.52 -1.44,1 -2.32,2.6 -0.88,1.56 -0.88,3.72 0,1.96 0.76,3.28 0.8,1.28 2.08,2.12 1.32,0.8 2.96,1.32 1.64,0.48 3.32,0.88 1.72,0.36 3.36,0.72 1.64,0.36 2.92,0.96 1.32,0.56 2.08,1.48 0.8,0.92 0.8,2.4 0,1.56 -0.64,2.56 -0.64,1 -1.68,1.6 -1.04,0.56 -2.36,0.8 -1.28,0.24 -2.56,0.24 -1.6,0 -3.12,-0.4 -1.52,-0.4 -2.68,-1.24 -1.12,-0.84 -1.84,-2.12 -0.68,-1.32 -0.68,-3.12 h -3.6 q 0,2.6 0.92,4.52 0.96,1.88 2.56,3.12 1.64,1.2 3.76,1.8 2.16,0.6 4.56,0.6 1.96,0 3.92,-0.48 2,-0.44 3.6,-1.44 1.6,-1.04 2.6,-2.64 1.04,-1.64 1.04,-3.92 0,-2.12 -0.8,-3.52 -0.76,-1.4 -2.08,-2.32 -1.28,-0.92 -2.92,-1.44 -1.64,-0.56 -3.36,-0.96 -1.68,-0.4 -3.32,-0.72 -1.64,-0.36 -2.96,-0.88 -1.28,-0.52 -2.08,-1.32 -0.76,-0.84 -0.76,-2.16 0,-1.4 0.52,-2.32 0.56,-0.96 1.44,-1.52 0.92,-0.56 2.08,-0.8 1.16,-0.24 2.36,-0.24 2.96,0 4.84,1.4 1.92,1.36 2.24,4.44 z"
       style="font-family:'Helvetica Neue';-inkscape-font-specification:'Helvetica Neue';fill:#517369;fill-opacity:1"
       id="path3184" />
    <path
       d="m 355.15953,171.9613 h 3.6 q -0.08,-2.36 -0.92,-4.04 -0.8,-1.72 -2.24,-2.84 -1.4,-1.12 -3.28,-1.64 -1.88,-0.52 -4.08,-0.52 -1.96,0 -3.84,0.52 -1.84,0.48 -3.32,1.52 -1.44,1 -2.32,2.6 -0.88,1.56 -0.88,3.72 0,1.96 0.76,3.28 0.8,1.28 2.08,2.12 1.32,0.8 2.96,1.32 1.64,0.48 3.32,0.88 1.72,0.36 3.36,0.72 1.64,0.36 2.92,0.96 1.32,0.56 2.08,1.48 0.8,0.92 0.8,2.4 0,1.56 -0.64,2.56 -0.64,1 -1.68,1.6 -1.04,0.56 -2.36,0.8 -1.28,0.24 -2.56,0.24 -1.6,0 -3.12,-0.4 -1.52,-0.4 -2.68,-1.24 -1.12,-0.84 -1.84,-2.12 -0.68,-1.32 -0.68,-3.12 h -3.6 q 0,2.6 0.92,4.52 0.96,1.88 2.56,3.12 1.64,1.2 3.76,1.8 2.16,0.6 4.56,0.6 1.96,0 3.92,-0.48 2,-0.44 3.6,-1.44 1.6,-1.04 2.6,-2.64 1.04,-1.64 1.04,-3.92 0,-2.12 -0.8,-3.52 -0.76,-1.4 -2.08,-2.32 -1.28,-0.92 -2.92,-1.44 -1.64,-0.56 -3.36,-0.96 -1.68,-0.4 -3.32,-0.72 -1.64,-0.36 -2.96,-0.88 -1.28,-0.52 -2.08,-1.32 -0.76,-0.84 -0.76,-2.16 0,-1.4 0.52,-2.32 0.56,-0.96 1.44,-1.52 0.92,-0.56 2.08,-0.8 1.16,-0.24 2.36,-0.24 2.96,0 4.84,1.4 1.92,1.36 2.24,4.44 z"
       style="font-family:'Helvetica Neue';-inkscape-font-specification:'Helvetica Neue';fill:#517369;fill-opacity:1"
       id="path3186" />
    <path
       d="m 364.65703,163.6013 v 28.56 h 3.6 v -23.76 h 0.08 l 8.92,23.76 h 3.24 l 8.92,-23.76 h 0.08 v 23.76 h 3.6 v -28.56 h -5.2 l -9.04,24 -9,-24 z"
       style="font-family:'Helvetica Neue';-inkscape-font-specification:'Helvetica Neue';fill:#517369;fill-opacity:1"
       id="path3188" />
    <path
       d="m 399.58078,163.6013 v 28.56 h 3.8 v -28.56 z"
       style="font-family:'Helvetica Neue';-inkscape-font-specification:'Helvetica Neue';fill:#517369;fill-opacity:1"
       id="path3190" />
    <path
       d="m 409.81141,163.6013 v 28.56 h 18.92 v -3.2 h -15.12 v -25.36 z"
       style="font-family:'Helvetica Neue';-inkscape-font-specification:'Helvetica Neue';fill:#517369;fill-opacity:1"
       id="path3192" />
    <path
       d="m 432.07703,163.6013 v 28.56 h 19.84 v -3.2 h -16.04 v -9.88 h 14.84 v -3.2 h -14.84 v -9.08 h 15.92 v -3.2 z"
       style="font-family:'Helvetica Neue';-inkscape-font-specification:'Helvetica Neue';fill:#517369;fill-opacity:1"
       id="path3194" />
    <path
       d="m 473.05016,171.9613 h 3.6 q -0.08,-2.36 -0.92,-4.04 -0.8,-1.72 -2.24,-2.84 -1.4,-1.12 -3.28,-1.64 -1.88,-0.52 -4.08,-0.52 -1.96,0 -3.84,0.52 -1.84,0.48 -3.32,1.52 -1.44,1 -2.32,2.6 -0.88,1.56 -0.88,3.72 0,1.96 0.76,3.28 0.8,1.28 2.08,2.12 1.32,0.8 2.96,1.32 1.64,0.48 3.32,0.88 1.72,0.36 3.36,0.72 1.64,0.36 2.92,0.96 1.32,0.56 2.08,1.48 0.8,0.92 0.8,2.4 0,1.56 -0.64,2.56 -0.64,1 -1.68,1.6 -1.04,0.56 -2.36,0.8 -1.28,0.24 -2.56,0.24 -1.6,0 -3.12,-0.4 -1.52,-0.4 -2.68,-1.24 -1.12,-0.84 -1.84,-2.12 -0.68,-1.32 -0.68,-3.12 h -3.6 q 0,2.6 0.92,4.52 0.96,1.88 2.56,3.12 1.64,1.2 3.76,1.8 2.16,0.6 4.56,0.6 1.96,0 3.92,-0.48 2,-0.44 3.6,-1.44 1.6,-1.04 2.6,-2.64 1.04,-1.64 1.04,-3.92 0,-2.12 -0.8,-3.52 -0.76,-1.4 -2.08,-2.32 -1.28,-0.92 -2.92,-1.44 -1.64,-0.56 -3.36,-0.96 -1.68,-0.4 -3.32,-0.72 -1.64,-0.36 -2.96,-0.88 -1.28,-0.52 -2.08,-1.32 -0.76,-0.84 -0.76,-2.16 0,-1.4 0.52,-2.32 0.56,-0.96 1.44,-1.52 0.92,-0.56 2.08,-0.8 1.16,-0.24 2.36,-0.24 2.96,0 4.84,1.4 1.92,1.36 2.24,4.44 z"
       style="font-family:'Helvetica Neue';-inkscape-font-specification:'Helvetica Neue';fill:#517369;fill-opacity:1"
       id="path3196" />
  </g>
  <metadata
     id="metadata3486">
    <rdf:RDF>
      <cc:Work
         rdf:about="">
        <dc:title>logo</dc:title>
      </cc:Work>
    </rdf:RDF>
  </metadata>
</svg>
